<svg width="24" height="25" viewBox="0 0 24 25" fill="none" xmlns="http://www.w3.org/2000/svg">
<path d="M18.375 4.25H10.875C10.179 4.25074 9.51179 4.52755 9.01967 5.01967C8.52754 5.51179 8.25074 6.17904 8.25 6.875V11.75H15.4392L12.9698 9.28016C12.8351 9.13836 12.7611 8.94955 12.7636 8.75398C12.7661 8.5584 12.8449 8.37155 12.9832 8.23325C13.1215 8.09495 13.3084 8.01614 13.504 8.01364C13.6995 8.01114 13.8884 8.08513 14.0302 8.21984L17.7802 11.9698C17.9207 12.1105 17.9997 12.3012 17.9997 12.5C17.9997 12.6988 17.9207 12.8895 17.7802 13.0302L14.0302 16.7802C13.8884 16.9149 13.6995 16.9889 13.504 16.9864C13.3084 16.9839 13.1215 16.9051 12.9832 16.7668C12.8449 16.6285 12.7661 16.4416 12.7636 16.246C12.7611 16.0505 12.8351 15.8616 12.9698 15.7198L15.4392 13.25H8.25V18.125C8.25 19.6273 9.83391 20.75 11.25 20.75H18.375C19.071 20.7493 19.7382 20.4725 20.2303 19.9803C20.7225 19.4882 20.9993 18.821 21 18.125V6.875C20.9993 6.17904 20.7225 5.51179 20.2303 5.01967C19.7382 4.52755 19.071 4.25074 18.375 4.25ZM3.75 11.75C3.55109 11.75 3.36032 11.829 3.21967 11.9697C3.07902 12.1103 3 12.3011 3 12.5C3 12.6989 3.07902 12.8897 3.21967 13.0303C3.36032 13.171 3.55109 13.25 3.75 13.25H8.25V11.75H3.75Z" fill="#111111"/>
</svg>
