<svg width="221" height="45" viewBox="0 0 221 45" fill="none" xmlns="http://www.w3.org/2000/svg">
<path d="M4.95501 36.798L6.66315 38.5177L8.37129 36.1102C8.14691 35.3428 7.87716 35.4269 7.00478 35.4223C5.43226 35.5089 4.85676 35.4459 4.95501 36.798Z" fill="#FEAC00"/>
<path d="M19.9867 3.43666L21.0115 5.50025C22.2829 5.2305 22.8648 4.87183 23.4029 3.43666C22.4392 2.5834 22.113 2.72206 21.6948 3.43666C20.8357 2.51258 20.4847 2.62285 19.9867 3.43666Z" fill="#FEAC00"/>
<path fill-rule="evenodd" clip-rule="evenodd" d="M7.00478 41.2691H33.6518C27.4171 35.9889 24.1581 31.4055 18.6201 21.3211C19.8301 20.2078 20.184 19.3838 19.645 17.1939C21.2538 14.6121 20.4745 13.6392 18.6201 12.035C15.4792 10.9331 14.387 11.0999 13.6051 12.5133C13.5296 12.6497 13.437 12.7796 13.3266 12.8893C10.3406 15.8568 9.85679 17.8736 11.6248 21.4083C11.9246 22.0078 11.9457 22.7093 11.7181 23.3401C11.162 24.8812 11.1263 26.1645 11.1043 28.1997C0.17221 11.0031 9.61494 -1.15302 20.3283 11.0032C29.8939 7.90777 30.5771 17.5379 24.4278 26.1361C38.093 20.6332 38.4346 0.341286 21.0115 6.53205C14.5424 -3.23706 4.78299 -1.28509 0.883037 7.34361C-0.447257 10.2869 -0.132108 13.669 0.887341 16.7355C2.9071 22.8108 5.11624 26.8043 6.76916 29.7923C9.50986 34.7467 10.7214 36.9367 7.00478 41.2691ZM16.6328 15.0138C16.4381 14.5726 15.8643 14.4654 15.5253 14.8067L14.8524 15.4841C14.6525 15.6854 14.5964 15.9898 14.7112 16.2499L15.4831 17.9984C15.6778 18.4395 16.2515 18.5467 16.5906 18.2054L17.2634 17.528C17.4634 17.3267 17.5195 17.0223 17.4047 16.7622L16.6328 15.0138Z" fill="#222222"/>
<path d="M28.869 33.7027C27.4782 32.162 26.6409 31.1454 25.1111 29.2315C25.9866 26.8553 26.8747 26.6653 28.869 27.5119C30.4982 26.709 31.2621 26.8058 32.2853 28.1997C31.5233 30.9253 30.763 32.1161 28.869 33.7027Z" fill="#FEAC00"/>
<path d="M53.9061 5.11815V11.7741H53.3575C52.9449 10.037 52.1759 8.70578 51.0505 7.78055C49.9252 6.85532 48.6498 6.3927 47.2243 6.3927C46.0333 6.3927 44.9408 6.7373 43.9468 7.42651C42.9527 8.11571 42.2259 9.01734 41.7664 10.1314C41.1756 11.557 40.8802 13.1431 40.8802 14.8897C40.8802 16.608 41.0959 18.1752 41.5273 19.5914C41.9586 20.9981 42.6338 22.065 43.5529 22.792C44.4719 23.5095 45.6629 23.8682 47.1259 23.8682C48.3262 23.8682 49.4235 23.6039 50.4175 23.0752C51.4209 22.5465 52.476 21.6354 53.5826 20.342V21.9989C52.5135 23.1224 51.3975 23.939 50.2346 24.4489C49.0812 24.9492 47.7307 25.1994 46.1834 25.1994C44.1484 25.1994 42.3384 24.7887 40.7536 23.9674C39.1781 23.146 37.959 21.9659 37.0962 20.4269C36.2428 18.888 35.8161 17.25 35.8161 15.5128C35.8161 13.6813 36.2897 11.9441 37.2369 10.3013C38.1934 8.65858 39.4782 7.38402 41.0912 6.47767C42.7136 5.57132 44.4344 5.11815 46.2537 5.11815C47.5948 5.11815 49.0108 5.41082 50.5019 5.99617C51.3647 6.33606 51.9133 6.506 52.1477 6.506C52.4478 6.506 52.7057 6.39742 52.9214 6.18028C53.1465 5.95369 53.2918 5.59965 53.3575 5.11815H53.9061Z" fill="#222222"/>
<path d="M61.8398 5.55716V13.2186C62.5619 12.4539 63.223 11.9158 63.8232 11.6042C64.4234 11.2832 65.0471 11.1227 65.6941 11.1227C66.5194 11.1227 67.2227 11.3587 67.8041 11.8308C68.395 12.3029 68.7841 12.8599 68.9717 13.5019C69.1686 14.1344 69.2671 15.206 69.2671 16.7166V21.8856C69.2671 22.8958 69.3609 23.5284 69.5484 23.7833C69.736 24.0287 70.1158 24.1845 70.6879 24.2506V24.7604H64.0202V24.2506C64.4891 24.1845 64.8407 23.9957 65.0752 23.6841C65.244 23.4387 65.3284 22.8392 65.3284 21.8856V15.9802C65.3284 14.885 65.2862 14.2005 65.2018 13.9267C65.1174 13.6435 64.972 13.4263 64.7657 13.2753C64.5688 13.1148 64.3437 13.0345 64.0905 13.0345C63.7154 13.0345 63.3496 13.1667 62.9933 13.4311C62.6369 13.686 62.2524 14.1392 61.8398 14.7906V21.8856C61.8398 22.8297 61.9101 23.4198 62.0508 23.6558C62.229 23.9768 62.5947 24.1751 63.148 24.2506V24.7604H56.4803V24.2506C57.0336 24.194 57.4275 24.0146 57.6619 23.7125C57.8214 23.5048 57.9011 22.8958 57.9011 21.8856V8.43199C57.9011 7.43123 57.8073 6.80811 57.6197 6.56264C57.4416 6.31717 57.0618 6.15667 56.4803 6.08115V5.55716H61.8398Z" fill="#222222"/>
<path d="M79.761 22.8061C78.1574 24.2317 76.7178 24.9445 75.4425 24.9445C74.6922 24.9445 74.0686 24.6991 73.5716 24.2081C73.0745 23.7077 72.826 23.0846 72.826 22.3388C72.826 21.3286 73.2574 20.4222 74.1202 19.6197C74.9829 18.8078 76.8632 17.7315 79.761 16.3909V15.0597C79.761 14.0589 79.7047 13.4311 79.5922 13.1762C79.489 12.9118 79.2874 12.6852 78.9873 12.4964C78.6872 12.2981 78.3496 12.199 77.9745 12.199C77.3649 12.199 76.8632 12.3359 76.4693 12.6097C76.2255 12.7796 76.1036 12.9779 76.1036 13.2045C76.1036 13.4027 76.2349 13.6482 76.4975 13.9409C76.8538 14.3469 77.032 14.7387 77.032 15.1163C77.032 15.5789 76.8585 15.9755 76.5115 16.3059C76.1739 16.6269 75.7285 16.7874 75.1752 16.7874C74.5844 16.7874 74.0873 16.608 73.6841 16.2492C73.2902 15.8905 73.0933 15.4704 73.0933 14.9889C73.0933 14.3091 73.3606 13.6624 73.8951 13.0487C74.4296 12.4256 75.1752 11.9488 76.1317 11.6184C77.0883 11.2879 78.0823 11.1227 79.1139 11.1227C80.3612 11.1227 81.3459 11.3918 82.068 11.9299C82.7994 12.4586 83.273 13.0345 83.4887 13.6577C83.62 14.0542 83.6856 14.9653 83.6856 16.3909V21.5316C83.6856 22.1358 83.7091 22.5182 83.756 22.6787C83.8029 22.8297 83.8732 22.943 83.967 23.0185C84.0608 23.0941 84.1686 23.1318 84.2905 23.1318C84.5343 23.1318 84.7829 22.9572 85.0361 22.6078L85.4581 22.9477C84.9892 23.6464 84.5015 24.1562 83.9951 24.4772C83.4981 24.7887 82.9307 24.9445 82.293 24.9445C81.5428 24.9445 80.9567 24.7699 80.5347 24.4205C80.1127 24.0618 79.8548 23.5236 79.761 22.8061ZM79.761 21.7723V17.3397C78.6263 18.01 77.7822 18.7275 77.229 19.4923C76.8632 20.0021 76.6803 20.5166 76.6803 21.0359C76.6803 21.4702 76.8351 21.8526 77.1445 22.183C77.379 22.4379 77.7072 22.5654 78.1292 22.5654C78.5981 22.5654 79.142 22.301 79.761 21.7723Z" fill="#222222"/>
<path d="M92.1258 6.67594V11.5192H95.2486V12.9212H92.1258V21.0925C92.1258 21.8573 92.1586 22.3529 92.2242 22.5795C92.2993 22.7967 92.4258 22.9761 92.604 23.1177C92.7822 23.2498 92.9463 23.3159 93.0964 23.3159C93.7059 23.3159 94.2827 22.8486 94.8266 21.9139L95.2486 22.2255C94.489 24.0382 93.2558 24.9445 91.549 24.9445C90.7144 24.9445 90.0063 24.7132 89.4249 24.2506C88.8529 23.7785 88.4871 23.2546 88.3277 22.6787C88.2339 22.3577 88.187 21.4891 88.187 20.0729V12.9212H86.4709V12.4256C87.6525 11.5853 88.6559 10.7026 89.4812 9.77735C90.3158 8.85212 91.0426 7.81831 91.6615 6.67594H92.1258Z" fill="#222222"/>
<path d="M109.203 11.5192V21.8856C109.203 22.8958 109.297 23.5284 109.484 23.7833C109.672 24.0287 110.052 24.1845 110.624 24.2506V24.7604H105.264V22.9902C104.636 23.7455 104.008 24.2978 103.379 24.6471C102.751 24.987 102.048 25.157 101.269 25.157C100.528 25.157 99.8672 24.9304 99.2858 24.4772C98.7137 24.0146 98.3292 23.4764 98.1323 22.8628C97.9354 22.2491 97.8369 21.1775 97.8369 19.6481V14.3941C97.8369 13.3933 97.7431 12.7702 97.5556 12.5247C97.3774 12.2792 96.9976 12.1187 96.4162 12.0432V11.5192H101.776V20.5686C101.776 21.5127 101.818 22.1216 101.902 22.3954C101.996 22.6692 102.137 22.8769 102.324 23.0185C102.521 23.1602 102.746 23.231 102.999 23.231C103.337 23.231 103.642 23.1413 103.914 22.9619C104.289 22.7164 104.739 22.2208 105.264 21.4749V14.3941C105.264 13.3933 105.17 12.7702 104.983 12.5247C104.805 12.2792 104.425 12.1187 103.843 12.0432V11.5192H109.203Z" fill="#222222"/>
<path d="M117.995 11.5192V14.5215C118.867 13.1526 119.631 12.2462 120.288 11.8025C120.944 11.3493 121.577 11.1227 122.187 11.1227C122.712 11.1227 123.129 11.2879 123.439 11.6184C123.757 11.9394 123.917 12.3973 123.917 12.9921C123.917 13.6246 123.762 14.1155 123.453 14.4649C123.153 14.8142 122.787 14.9889 122.355 14.9889C121.858 14.9889 121.427 14.8284 121.061 14.5074C120.696 14.1864 120.48 14.007 120.414 13.9692C120.32 13.9126 120.213 13.8842 120.091 13.8842C119.819 13.8842 119.561 13.9881 119.317 14.1958C118.933 14.5168 118.642 14.9747 118.445 15.5695C118.145 16.4853 117.995 17.4955 117.995 18.6001V21.6449L118.009 22.4379C118.009 22.9761 118.042 23.3207 118.107 23.4717C118.22 23.7266 118.384 23.9154 118.6 24.0382C118.825 24.1515 119.2 24.2223 119.725 24.2506V24.7604H112.621V24.2506C113.193 24.2034 113.578 24.0476 113.775 23.7833C113.981 23.5095 114.084 22.7967 114.084 21.6449V14.3233C114.084 13.568 114.047 13.0865 113.972 12.8788C113.878 12.6144 113.742 12.4209 113.564 12.2981C113.385 12.1754 113.071 12.0904 112.621 12.0432V11.5192H117.995Z" fill="#222222"/>
<path d="M131.274 25.157L126.843 14.8897C126.308 13.6529 125.891 12.8693 125.591 12.5389C125.375 12.2934 125.056 12.1282 124.634 12.0432V11.5192H131.626V12.0432C131.185 12.0432 130.885 12.1235 130.725 12.284C130.5 12.4917 130.388 12.7371 130.388 13.0204C130.388 13.3697 130.594 14.0259 131.007 14.9889L133.173 19.9596L134.903 15.6686C135.4 14.4413 135.649 13.5727 135.649 13.0629C135.649 12.7702 135.541 12.5342 135.325 12.3548C135.119 12.166 134.748 12.0621 134.214 12.0432V11.5192H138.518V12.0432C138.106 12.0999 137.768 12.2556 137.505 12.5106C137.243 12.7655 136.849 13.516 136.324 14.7623L131.935 25.157H131.274Z" fill="#222222"/>
<path d="M147.001 22.8061C145.397 24.2317 143.957 24.9445 142.682 24.9445C141.932 24.9445 141.308 24.6991 140.811 24.2081C140.314 23.7077 140.066 23.0846 140.066 22.3388C140.066 21.3286 140.497 20.4222 141.36 19.6197C142.223 18.8078 144.103 17.7315 147.001 16.3909V15.0597C147.001 14.0589 146.944 13.4311 146.832 13.1762C146.729 12.9118 146.527 12.6852 146.227 12.4964C145.927 12.2981 145.589 12.199 145.214 12.199C144.605 12.199 144.103 12.3359 143.709 12.6097C143.465 12.7796 143.343 12.9779 143.343 13.2045C143.343 13.4027 143.475 13.6482 143.737 13.9409C144.093 14.3469 144.272 14.7387 144.272 15.1163C144.272 15.5789 144.098 15.9755 143.751 16.3059C143.414 16.6269 142.968 16.7874 142.415 16.7874C141.824 16.7874 141.327 16.608 140.924 16.2492C140.53 15.8905 140.333 15.4704 140.333 14.9889C140.333 14.3091 140.6 13.6624 141.135 13.0487C141.669 12.4256 142.415 11.9488 143.371 11.6184C144.328 11.2879 145.322 11.1227 146.354 11.1227C147.601 11.1227 148.585 11.3918 149.308 11.9299C150.039 12.4586 150.513 13.0345 150.728 13.6577C150.86 14.0542 150.925 14.9653 150.925 16.3909V21.5316C150.925 22.1358 150.949 22.5182 150.996 22.6787C151.042 22.8297 151.113 22.943 151.207 23.0185C151.3 23.0941 151.408 23.1318 151.53 23.1318C151.774 23.1318 152.022 22.9572 152.276 22.6078L152.698 22.9477C152.229 23.6464 151.741 24.1562 151.235 24.4772C150.738 24.7887 150.17 24.9445 149.533 24.9445C148.782 24.9445 148.196 24.7699 147.774 24.4205C147.352 24.0618 147.094 23.5236 147.001 22.8061ZM147.001 21.7723V17.3397C145.866 18.01 145.022 18.7275 144.469 19.4923C144.103 20.0021 143.92 20.5166 143.92 21.0359C143.92 21.4702 144.075 21.8526 144.384 22.183C144.619 22.4379 144.947 22.5654 145.369 22.5654C145.838 22.5654 146.382 22.301 147.001 21.7723Z" fill="#222222"/>
<path d="M159.604 11.5192V14.5215C160.477 13.1526 161.241 12.2462 161.897 11.8025C162.554 11.3493 163.187 11.1227 163.796 11.1227C164.322 11.1227 164.739 11.2879 165.048 11.6184C165.367 11.9394 165.527 12.3973 165.527 12.9921C165.527 13.6246 165.372 14.1155 165.062 14.4649C164.762 14.8142 164.397 14.9889 163.965 14.9889C163.468 14.9889 163.037 14.8284 162.671 14.5074C162.305 14.1864 162.09 14.007 162.024 13.9692C161.93 13.9126 161.822 13.8842 161.7 13.8842C161.429 13.8842 161.171 13.9881 160.927 14.1958C160.542 14.5168 160.252 14.9747 160.055 15.5695C159.755 16.4853 159.604 17.4955 159.604 18.6001V21.6449L159.619 22.4379C159.619 22.9761 159.651 23.3207 159.717 23.4717C159.83 23.7266 159.994 23.9154 160.209 24.0382C160.434 24.1515 160.81 24.2223 161.335 24.2506V24.7604H154.231V24.2506C154.803 24.2034 155.188 24.0476 155.384 23.7833C155.591 23.5095 155.694 22.7967 155.694 21.6449V14.3233C155.694 13.568 155.656 13.0865 155.581 12.8788C155.488 12.6144 155.352 12.4209 155.173 12.2981C154.995 12.1754 154.681 12.0904 154.231 12.0432V11.5192H159.604Z" fill="#222222"/>
<path d="M172.321 11.5192V13.2328C172.996 12.4964 173.643 11.963 174.262 11.6325C174.881 11.2927 175.547 11.1227 176.26 11.1227C177.113 11.1227 177.821 11.3635 178.384 11.845C178.946 12.317 179.322 12.9071 179.509 13.6152C179.659 14.1533 179.734 15.1871 179.734 16.7166V21.8714C179.734 22.8911 179.823 23.5284 180.001 23.7833C180.189 24.0287 180.574 24.1845 181.155 24.2506V24.7604H174.501V24.2506C174.998 24.1845 175.355 23.9768 175.57 23.6275C175.72 23.3915 175.795 22.8061 175.795 21.8714V15.9802C175.795 14.8944 175.753 14.21 175.669 13.9267C175.584 13.6435 175.439 13.4263 175.233 13.2753C175.036 13.1148 174.815 13.0345 174.572 13.0345C173.765 13.0345 173.015 13.6152 172.321 14.7764V21.8714C172.321 22.8628 172.41 23.4906 172.588 23.7549C172.776 24.0193 173.118 24.1845 173.615 24.2506V24.7604H166.961V24.2506C167.515 24.194 167.909 24.0146 168.143 23.7125C168.303 23.5048 168.382 22.8911 168.382 21.8714V14.3941C168.382 13.3933 168.288 12.7702 168.101 12.5247C167.923 12.2792 167.543 12.1187 166.961 12.0432V11.5192H172.321Z" fill="#222222"/>
<path d="M190.242 22.8061C188.639 24.2317 187.199 24.9445 185.924 24.9445C185.173 24.9445 184.55 24.6991 184.053 24.2081C183.556 23.7077 183.307 23.0846 183.307 22.3388C183.307 21.3286 183.739 20.4222 184.601 19.6197C185.464 18.8078 187.344 17.7315 190.242 16.3909V15.0597C190.242 14.0589 190.186 13.4311 190.073 13.1762C189.97 12.9118 189.769 12.6852 189.468 12.4964C189.168 12.2981 188.831 12.199 188.456 12.199C187.846 12.199 187.344 12.3359 186.951 12.6097C186.707 12.7796 186.585 12.9779 186.585 13.2045C186.585 13.4027 186.716 13.6482 186.979 13.9409C187.335 14.3469 187.513 14.7387 187.513 15.1163C187.513 15.5789 187.34 15.9755 186.993 16.3059C186.655 16.6269 186.21 16.7874 185.656 16.7874C185.066 16.7874 184.569 16.608 184.165 16.2492C183.771 15.8905 183.574 15.4704 183.574 14.9889C183.574 14.3091 183.842 13.6624 184.376 13.0487C184.911 12.4256 185.656 11.9488 186.613 11.6184C187.569 11.2879 188.563 11.1227 189.595 11.1227C190.842 11.1227 191.827 11.3918 192.549 11.9299C193.281 12.4586 193.754 13.0345 193.97 13.6577C194.101 14.0542 194.167 14.9653 194.167 16.3909V21.5316C194.167 22.1358 194.19 22.5182 194.237 22.6787C194.284 22.8297 194.354 22.943 194.448 23.0185C194.542 23.0941 194.65 23.1318 194.772 23.1318C195.016 23.1318 195.264 22.9572 195.517 22.6078L195.939 22.9477C195.47 23.6464 194.983 24.1562 194.476 24.4772C193.979 24.7887 193.412 24.9445 192.774 24.9445C192.024 24.9445 191.438 24.7699 191.016 24.4205C190.594 24.0618 190.336 23.5236 190.242 22.8061ZM190.242 21.7723V17.3397C189.107 18.01 188.263 18.7275 187.71 19.4923C187.344 20.0021 187.161 20.5166 187.161 21.0359C187.161 21.4702 187.316 21.8526 187.626 22.183C187.86 22.4379 188.188 22.5654 188.61 22.5654C189.079 22.5654 189.623 22.301 190.242 21.7723Z" fill="#222222"/>
<path d="M202.846 11.5192V13.2611C203.568 12.4681 204.234 11.9158 204.844 11.6042C205.462 11.2832 206.138 11.1227 206.869 11.1227C207.713 11.1227 208.421 11.321 208.993 11.7175C209.565 12.114 210.006 12.7183 210.316 13.5302C211.066 12.6805 211.783 12.0668 212.468 11.6892C213.162 11.3115 213.884 11.1227 214.634 11.1227C215.544 11.1227 216.266 11.3351 216.8 11.76C217.344 12.1754 217.719 12.7088 217.926 13.3603C218.141 14.0023 218.249 15.0313 218.249 16.4475V21.8714C218.249 22.8911 218.338 23.5236 218.517 23.7691C218.704 24.0146 219.089 24.1751 219.67 24.2506V24.7604H212.876V24.2506C213.41 24.2034 213.804 23.9957 214.057 23.6275C214.226 23.3726 214.311 22.7872 214.311 21.8714V16.1784C214.311 14.9983 214.264 14.2477 214.17 13.9267C214.076 13.6057 213.926 13.3697 213.72 13.2186C213.523 13.0581 213.288 12.9779 213.016 12.9779C212.613 12.9779 212.205 13.129 211.793 13.4311C211.38 13.7237 210.963 14.1675 210.541 14.7623V21.8714C210.541 22.825 210.62 23.4245 210.78 23.67C210.995 24.0193 211.408 24.2128 212.018 24.2506V24.7604H205.209V24.2506C205.575 24.2317 205.861 24.142 206.067 23.9815C206.283 23.8116 206.424 23.6133 206.489 23.3867C206.564 23.1507 206.602 22.6456 206.602 21.8714V16.1784C206.602 14.9794 206.555 14.2288 206.461 13.9267C206.367 13.6246 206.208 13.3886 205.983 13.2186C205.767 13.0487 205.533 12.9637 205.28 12.9637C204.904 12.9637 204.562 13.0629 204.253 13.2611C203.812 13.5538 203.343 14.0542 202.846 14.7623V21.8714C202.846 22.8061 202.935 23.4245 203.113 23.7266C203.301 24.0193 203.685 24.194 204.267 24.2506V24.7604H197.487V24.2506C198.04 24.194 198.434 24.0146 198.668 23.7125C198.828 23.5048 198.907 22.8911 198.907 21.8714V14.3941C198.907 13.3933 198.814 12.7702 198.626 12.5247C198.448 12.2792 198.068 12.1187 197.487 12.0432V11.5192H202.846Z" fill="#222222"/>
<path d="M49.719 28.7241V40.5813H47.7871V32.4604L44.1944 40.5813H42.8557L39.2461 32.4604V40.5813H37.3142V28.7241H39.3986L43.5335 38.0222L47.6515 28.7241H49.719Z" fill="#FEAC00"/>
<path d="M52.631 35.8384C52.631 34.8944 52.823 34.0584 53.2072 33.3305C53.6026 32.6026 54.1336 32.0396 54.8001 31.6415C55.478 31.232 56.2236 31.0273 57.037 31.0273C57.7714 31.0273 58.4097 31.1752 58.952 31.4709C59.5056 31.7552 59.9462 32.1135 60.2738 32.5457V31.1808H62.2227V40.5813H60.2738V39.1823C59.9462 39.6259 59.4999 39.9955 58.935 40.2913C58.3702 40.587 57.7262 40.7348 57.0032 40.7348C56.201 40.7348 55.4667 40.5301 54.8001 40.1206C54.1336 39.6998 53.6026 39.1198 53.2072 38.3805C52.823 37.6298 52.631 36.7824 52.631 35.8384ZM60.2738 35.8725C60.2738 35.2242 60.1382 34.6612 59.8671 34.1835C59.6073 33.7058 59.2627 33.3419 58.8334 33.0916C58.4041 32.8414 57.9409 32.7163 57.4438 32.7163C56.9467 32.7163 56.4835 32.8414 56.0542 33.0916C55.6248 33.3305 55.2746 33.6888 55.0035 34.1665C54.7436 34.6328 54.6137 35.1901 54.6137 35.8384C54.6137 36.4867 54.7436 37.0554 55.0035 37.5445C55.2746 38.0336 55.6248 38.4089 56.0542 38.6705C56.4948 38.9207 56.958 39.0458 57.4438 39.0458C57.9409 39.0458 58.4041 38.9207 58.8334 38.6705C59.2627 38.4203 59.6073 38.0563 59.8671 37.5786C60.1382 37.0895 60.2738 36.5208 60.2738 35.8725Z" fill="#FEAC00"/>
<path d="M68.0308 32.7675V37.971C68.0308 38.3236 68.1099 38.5795 68.268 38.7387C68.4375 38.8866 68.7199 38.9605 69.1154 38.9605H70.3016V40.5813H68.7764C67.9065 40.5813 67.2399 40.3766 66.7767 39.9671C66.3135 39.5576 66.0819 38.8923 66.0819 37.971V32.7675H64.9804V31.1808H66.0819V28.8435H68.0308V31.1808H70.3016V32.7675H68.0308Z" fill="#FEAC00"/>
<path d="M75.0309 32.5457C75.3133 32.068 75.6861 31.6984 76.1493 31.4368C76.6238 31.1638 77.183 31.0273 77.827 31.0273V33.0405H77.3356C76.5786 33.0405 76.0024 33.2338 75.607 33.6205C75.2229 34.0072 75.0309 34.6783 75.0309 35.6337V40.5813H73.099V31.1808H75.0309V32.5457Z" fill="#FEAC00"/>
<path d="M81.6025 29.9354C81.2523 29.9354 80.9585 29.816 80.7213 29.5771C80.484 29.3383 80.3654 29.0426 80.3654 28.69C80.3654 28.3374 80.484 28.0417 80.7213 27.8028C80.9585 27.564 81.2523 27.4446 81.6025 27.4446C81.9414 27.4446 82.2295 27.564 82.4668 27.8028C82.704 28.0417 82.8226 28.3374 82.8226 28.69C82.8226 29.0426 82.704 29.3383 82.4668 29.5771C82.2295 29.816 81.9414 29.9354 81.6025 29.9354ZM82.5515 31.1808V40.5813H80.6196V31.1808H82.5515Z" fill="#FEAC00"/>
<path d="M97.408 31.0273C98.1423 31.0273 98.7976 31.1808 99.3737 31.4879C99.9612 31.795 100.419 32.25 100.746 32.8528C101.085 33.4556 101.255 34.1835 101.255 35.0366V40.5813H99.3399V35.3266C99.3399 34.4849 99.1308 33.8423 98.7128 33.3987C98.2948 32.9438 97.7243 32.7163 97.0012 32.7163C96.2782 32.7163 95.702 32.9438 95.2727 33.3987C94.8547 33.8423 94.6457 34.4849 94.6457 35.3266V40.5813H92.7307V35.3266C92.7307 34.4849 92.5217 33.8423 92.1037 33.3987C91.6857 32.9438 91.1152 32.7163 90.3921 32.7163C89.6691 32.7163 89.0929 32.9438 88.6636 33.3987C88.2456 33.8423 88.0366 34.4849 88.0366 35.3266V40.5813H86.1047V31.1808H88.0366V32.2557C88.3529 31.869 88.754 31.5676 89.2398 31.3515C89.7256 31.1354 90.2453 31.0273 90.7988 31.0273C91.5445 31.0273 92.211 31.1865 92.7985 31.505C93.386 31.8235 93.8379 32.2841 94.1542 32.8869C94.4367 32.3182 94.8773 31.869 95.4761 31.5391C96.0748 31.1979 96.7188 31.0273 97.408 31.0273Z" fill="#FEAC00"/>
<path d="M108.78 40.7348C107.899 40.7348 107.102 40.5358 106.391 40.1377C105.679 39.7283 105.12 39.1596 104.713 38.4316C104.306 37.6923 104.103 36.8393 104.103 35.8725C104.103 34.9171 104.312 34.0698 104.73 33.3305C105.148 32.5912 105.718 32.0225 106.441 31.6244C107.164 31.2263 107.972 31.0273 108.865 31.0273C109.757 31.0273 110.565 31.2263 111.288 31.6244C112.011 32.0225 112.582 32.5912 113 33.3305C113.418 34.0698 113.627 34.9171 113.627 35.8725C113.627 36.8279 113.412 37.6753 112.983 38.4146C112.553 39.1539 111.966 39.7283 111.22 40.1377C110.486 40.5358 109.673 40.7348 108.78 40.7348ZM108.78 39.0458C109.277 39.0458 109.74 38.9264 110.17 38.6875C110.61 38.4487 110.966 38.0904 111.237 37.6127C111.508 37.135 111.644 36.555 111.644 35.8725C111.644 35.1901 111.514 34.6157 111.254 34.1494C110.994 33.6717 110.65 33.3134 110.221 33.0746C109.791 32.8357 109.328 32.7163 108.831 32.7163C108.334 32.7163 107.871 32.8357 107.441 33.0746C107.023 33.3134 106.69 33.6717 106.441 34.1494C106.193 34.6157 106.069 35.1901 106.069 35.8725C106.069 36.8848 106.323 37.6696 106.831 38.2269C107.351 38.7729 108.001 39.0458 108.78 39.0458Z" fill="#FEAC00"/>
<path d="M121.264 31.0273C121.999 31.0273 122.654 31.1808 123.23 31.4879C123.818 31.795 124.275 32.25 124.603 32.8528C124.931 33.4556 125.094 34.1835 125.094 35.0366V40.5813H123.179V35.3266C123.179 34.4849 122.97 33.8423 122.552 33.3987C122.134 32.9438 121.564 32.7163 120.841 32.7163C120.118 32.7163 119.542 32.9438 119.112 33.3987C118.694 33.8423 118.485 34.4849 118.485 35.3266V40.5813H116.553V31.1808H118.485V32.2557C118.802 31.869 119.203 31.5676 119.688 31.3515C120.186 31.1354 120.711 31.0273 121.264 31.0273Z" fill="#FEAC00"/>
<path d="M136.981 31.1808L131.253 45H129.253L131.151 40.4277L127.474 31.1808H129.626L132.253 38.3463L134.981 31.1808H136.981Z" fill="#FEAC00"/>
<path d="M148.755 40.7007C147.964 40.7007 147.253 40.5642 146.62 40.2913C145.987 40.0069 145.49 39.6088 145.129 39.097C144.767 38.5852 144.586 37.9881 144.586 37.3056H146.654C146.699 37.8175 146.897 38.2383 147.247 38.5681C147.608 38.898 148.111 39.0629 148.755 39.0629C149.422 39.0629 149.941 38.9036 150.314 38.5852C150.687 38.2553 150.873 37.8345 150.873 37.3227C150.873 36.9246 150.755 36.6005 150.518 36.3502C150.292 36.1 150.003 35.9067 149.653 35.7702C149.314 35.6337 148.84 35.4858 148.23 35.3266C147.462 35.1219 146.835 34.9171 146.349 34.7124C145.874 34.4963 145.467 34.1665 145.129 33.7229C144.79 33.2793 144.62 32.6879 144.62 31.9486C144.62 31.2662 144.79 30.669 145.129 30.1572C145.467 29.6454 145.942 29.253 146.552 28.98C147.162 28.707 147.868 28.5706 148.67 28.5706C149.811 28.5706 150.743 28.8606 151.467 29.4407C152.201 30.0093 152.608 30.7941 152.687 31.795H150.551C150.518 31.3628 150.314 30.9932 149.941 30.6861C149.569 30.379 149.077 30.2254 148.467 30.2254C147.913 30.2254 147.462 30.3676 147.111 30.652C146.761 30.9363 146.586 31.3458 146.586 31.8803C146.586 32.2443 146.693 32.5457 146.908 32.7845C147.134 33.012 147.416 33.194 147.755 33.3305C148.094 33.467 148.557 33.6148 149.145 33.7741C149.924 33.9902 150.557 34.2063 151.043 34.4224C151.54 34.6385 151.958 34.974 152.297 35.429C152.647 35.8725 152.822 36.4697 152.822 37.2203C152.822 37.8231 152.658 38.3918 152.331 38.9264C152.014 39.461 151.546 39.8932 150.924 40.223C150.314 40.5415 149.591 40.7007 148.755 40.7007Z" fill="#FEAC00"/>
<path d="M164.677 35.6507C164.677 36.0033 164.654 36.3218 164.609 36.6061H157.474C157.531 37.3568 157.808 37.9596 158.305 38.4146C158.802 38.8695 159.412 39.097 160.135 39.097C161.174 39.097 161.909 38.6591 162.338 37.7833H164.422C164.14 38.6477 163.626 39.3586 162.88 39.9159C162.146 40.4619 161.231 40.7348 160.135 40.7348C159.242 40.7348 158.44 40.5358 157.729 40.1377C157.028 39.7283 156.474 39.1596 156.068 38.4316C155.672 37.6923 155.475 36.8393 155.475 35.8725C155.475 34.9058 155.667 34.0584 156.051 33.3305C156.446 32.5912 156.994 32.0225 157.695 31.6244C158.406 31.2263 159.22 31.0273 160.135 31.0273C161.016 31.0273 161.801 31.2207 162.49 31.6074C163.18 31.9941 163.716 32.54 164.1 33.2452C164.484 33.939 164.677 34.7408 164.677 35.6507ZM162.66 35.0366C162.649 34.32 162.394 33.7456 161.897 33.3134C161.4 32.8812 160.785 32.6651 160.05 32.6651C159.384 32.6651 158.813 32.8812 158.339 33.3134C157.864 33.7343 157.582 34.3086 157.491 35.0366H162.66Z" fill="#FEAC00"/>
<path d="M169.526 32.5457C169.809 32.068 170.182 31.6984 170.645 31.4368C171.119 31.1638 171.679 31.0273 172.323 31.0273V33.0405H171.831C171.074 33.0405 170.498 33.2338 170.103 33.6205C169.718 34.0072 169.526 34.6783 169.526 35.6337V40.5813H167.595V31.1808H169.526V32.5457Z" fill="#FEAC00"/>
<path d="M178.725 38.8411L181.368 31.1808H183.419L179.86 40.5813H177.555L174.014 31.1808H176.081L178.725 38.8411Z" fill="#FEAC00"/>
<path d="M186.879 29.9354C186.529 29.9354 186.235 29.816 185.998 29.5771C185.76 29.3383 185.642 29.0426 185.642 28.69C185.642 28.3374 185.76 28.0417 185.998 27.8028C186.235 27.564 186.529 27.4446 186.879 27.4446C187.218 27.4446 187.506 27.564 187.743 27.8028C187.98 28.0417 188.099 28.3374 188.099 28.69C188.099 29.0426 187.98 29.3383 187.743 29.5771C187.506 29.816 187.218 29.9354 186.879 29.9354ZM187.828 31.1808V40.5813H185.896V31.1808H187.828Z" fill="#FEAC00"/>
<path d="M190.737 35.8725C190.737 34.9058 190.929 34.0584 191.313 33.3305C191.709 32.5912 192.251 32.0225 192.94 31.6244C193.629 31.2263 194.42 31.0273 195.313 31.0273C196.442 31.0273 197.374 31.3003 198.109 31.8462C198.854 32.3808 199.357 33.1485 199.617 34.1494H197.533C197.363 33.6831 197.092 33.3191 196.719 33.0575C196.346 32.7959 195.878 32.6651 195.313 32.6651C194.522 32.6651 193.889 32.9495 193.415 33.5182C192.951 34.0755 192.72 34.8603 192.72 35.8725C192.72 36.8848 192.951 37.6753 193.415 38.244C193.889 38.8127 194.522 39.097 195.313 39.097C196.431 39.097 197.171 38.6022 197.533 37.6127H199.617C199.346 38.5681 198.837 39.3302 198.092 39.8989C197.346 40.4562 196.42 40.7348 195.313 40.7348C194.42 40.7348 193.629 40.5358 192.94 40.1377C192.251 39.7283 191.709 39.1596 191.313 38.4316C190.929 37.6923 190.737 36.8393 190.737 35.8725Z" fill="#FEAC00"/>
<path d="M211.117 35.6507C211.117 36.0033 211.094 36.3218 211.049 36.6061H203.915C203.971 37.3568 204.248 37.9596 204.745 38.4146C205.242 38.8695 205.852 39.097 206.575 39.097C207.615 39.097 208.349 38.6591 208.778 37.7833H210.863C210.58 38.6477 210.066 39.3586 209.321 39.9159C208.586 40.4619 207.671 40.7348 206.575 40.7348C205.683 40.7348 204.881 40.5358 204.169 40.1377C203.469 39.7283 202.915 39.1596 202.508 38.4316C202.113 37.6923 201.915 36.8393 201.915 35.8725C201.915 34.9058 202.107 34.0584 202.491 33.3305C202.887 32.5912 203.435 32.0225 204.135 31.6244C204.847 31.2263 205.66 31.0273 206.575 31.0273C207.457 31.0273 208.242 31.2207 208.931 31.6074C209.62 31.9941 210.157 32.54 210.541 33.2452C210.925 33.939 211.117 34.7408 211.117 35.6507ZM209.1 35.0366C209.089 34.32 208.835 33.7456 208.338 33.3134C207.841 32.8812 207.225 32.6651 206.491 32.6651C205.824 32.6651 205.254 32.8812 204.779 33.3134C204.305 33.7343 204.022 34.3086 203.932 35.0366H209.1Z" fill="#FEAC00"/>
<path d="M217.424 40.7348C216.69 40.7348 216.029 40.604 215.442 40.3424C214.865 40.0695 214.408 39.7055 214.069 39.2506C213.73 38.7842 213.549 38.2667 213.527 37.698H215.526C215.56 38.0961 215.747 38.4316 216.086 38.7046C216.436 38.9662 216.871 39.097 217.39 39.097C217.933 39.097 218.351 38.9946 218.644 38.7899C218.949 38.5738 219.102 38.3008 219.102 37.971C219.102 37.6184 218.933 37.3568 218.594 37.1862C218.266 37.0156 217.741 36.8279 217.018 36.6232C216.317 36.4299 215.747 36.2422 215.306 36.0602C214.865 35.8782 214.481 35.5996 214.154 35.2242C213.837 34.8489 213.679 34.3541 213.679 33.74C213.679 33.2395 213.826 32.7846 214.12 32.3751C214.413 31.9543 214.831 31.6244 215.374 31.3856C215.927 31.1467 216.56 31.0273 217.272 31.0273C218.334 31.0273 219.187 31.3003 219.831 31.8462C220.486 32.3808 220.836 33.1144 220.881 34.047H218.949C218.916 33.6262 218.746 33.2907 218.441 33.0405C218.136 32.7902 217.724 32.6651 217.204 32.6651C216.696 32.6651 216.306 32.7618 216.035 32.9552C215.764 33.1485 215.628 33.4044 215.628 33.7229C215.628 33.9731 215.718 34.1835 215.899 34.3541C216.08 34.5247 216.3 34.6612 216.56 34.7636C216.82 34.8546 217.204 34.974 217.712 35.1219C218.39 35.3038 218.944 35.4915 219.373 35.6849C219.814 35.8668 220.192 36.1398 220.509 36.5038C220.825 36.8677 220.989 37.3511 221 37.9539C221 38.4885 220.853 38.9662 220.559 39.387C220.266 39.8079 219.848 40.1377 219.305 40.3766C218.774 40.6154 218.147 40.7348 217.424 40.7348Z" fill="#FEAC00"/>
</svg>
