<svg width="24" height="25" viewBox="0 0 24 25" fill="none" xmlns="http://www.w3.org/2000/svg">
<path d="M12 2.75C6.62391 2.75 2.25 7.12391 2.25 12.5C2.25 17.8761 6.62391 22.25 12 22.25C17.3761 22.25 21.75 17.8761 21.75 12.5C21.75 7.12391 17.3761 2.75 12 2.75ZM12.0938 7.25C12.7613 7.25 13.4138 7.44794 13.9688 7.81879C14.5238 8.18964 14.9564 8.71674 15.2118 9.33344C15.4673 9.95014 15.5341 10.6287 15.4039 11.2834C15.2737 11.9381 14.9522 12.5395 14.4802 13.0115C14.0082 13.4835 13.4069 13.8049 12.7522 13.9352C12.0975 14.0654 11.4189 13.9985 10.8022 13.7431C10.1855 13.4876 9.65839 13.0551 9.28754 12.5C8.91669 11.945 8.71875 11.2925 8.71875 10.625C8.71875 9.72989 9.07433 8.87145 9.70726 8.23851C10.3402 7.60558 11.1986 7.25 12.0938 7.25ZM12 20.75C10.8621 20.7505 9.73645 20.5149 8.69419 20.0583C7.65194 19.6016 6.71572 18.9337 5.94469 18.0969C6.35906 15.9509 10.0809 15.5 12 15.5C13.9191 15.5 17.6409 15.9509 18.0553 18.0964C17.2844 18.9334 16.3482 19.6014 15.3059 20.0582C14.2636 20.5149 13.138 20.7505 12 20.75Z" fill="#111111"/>
</svg>
